<?xml version="1.0" encoding="utf-8"?>
<!-- Generator: Adobe Illustrator 26.5.0, SVG Export Plug-In . SVG Version: 6.00 Build 0)  -->
<svg version="1.1" id="Layer_1" xmlns="http://www.w3.org/2000/svg" xmlns:xlink="http://www.w3.org/1999/xlink" x="0px" y="0px"
	 viewBox="0 0 40 28.3" style="enable-background:new 0 0 40 28.3;" xml:space="preserve">
<style type="text/css">
	.st0{fill:#1e1e1e);}
</style>
<g>
	<path class="st0" d="M38,3.4L38,3.4c0,0.7-0.4,1.4-1.1,1.8l-15.3,8c-0.9,0.5-1.9,0.5-2.8,0l-15.3-8c-0.7-0.3-1.1-1-1.1-1.8v0
		c0-1.1,0.9-2,2-2H36C37.1,1.4,38,2.3,38,3.4z"/>
	<path class="st0" d="M21.4,17.1l13.7-7.2c1.3-0.7,2.9,0.3,2.9,1.8v13.2c0,1.1-0.9,2-2,2H4.4c-1.1,0-2-0.9-2-2V11.7
		c0-1.5,1.6-2.5,2.9-1.8l13.7,7.2C19.7,17.5,20.6,17.5,21.4,17.1z"/>
</g>
</svg>
