<svg width="33" height="33" viewBox="0 0 33 33" fill="none" xmlns="http://www.w3.org/2000/svg">
<path d="M29.949 0H3.18611C1.72374 0 0.446045 1.05222 0.446045 2.49741V29.3197C0.446045 30.7728 1.72374 32.0677 3.18611 32.0677H29.9411C31.4114 32.0677 32.5137 30.7642 32.5137 29.3197V2.49741C32.5223 1.05222 31.4114 0 29.949 0ZM10.3863 26.73H5.79232V12.4463H10.3863V26.73ZM8.24822 10.2745H8.21529C6.74505 10.2745 5.79304 9.18009 5.79304 7.81006C5.79304 6.41497 6.7701 5.34629 8.27327 5.34629C9.77644 5.34629 10.6962 6.4071 10.7292 7.81006C10.7284 9.18009 9.77644 10.2745 8.24822 10.2745ZM27.176 26.73H22.582V18.9199C22.582 17.0488 21.9135 15.7704 20.2514 15.7704C18.9816 15.7704 18.23 16.6294 17.8957 17.4662C17.7704 17.7668 17.7368 18.1762 17.7368 18.5943V26.73H13.1428V12.4463H17.7368V14.434C18.4054 13.482 19.4497 12.112 21.8798 12.112C24.8955 12.112 27.1767 14.0998 27.1767 18.3852L27.176 26.73Z" fill="white"/>
</svg>
