<svg width="35" height="28" viewBox="0 0 35 28" fill="none" xmlns="http://www.w3.org/2000/svg">
<path d="M34.4431 3.61177C33.1511 4.16832 31.7841 4.53498 30.3853 4.70018C31.8553 3.8468 32.9608 2.49105 33.4945 0.887203C32.1046 1.6929 30.5866 2.25822 29.0054 2.55894C28.3395 1.86714 27.5388 1.31681 26.6517 0.94137C25.7647 0.565935 24.8099 0.373245 23.8454 0.375012C19.9404 0.375012 16.7802 3.46238 16.7802 7.26824C16.7775 7.79763 16.8387 8.32543 16.9625 8.84039C14.1623 8.71025 11.4204 8.00209 8.91213 6.76122C6.40386 5.52034 4.18446 3.77408 2.39595 1.63415C1.76849 2.6828 1.43666 3.87928 1.43513 5.09855C1.43513 7.48877 2.69302 9.60156 4.59241 10.8394C3.46707 10.8129 2.3648 10.5176 1.37916 9.97859V10.064C1.37916 13.4074 3.81888 16.1889 7.04791 16.822C6.4407 16.9825 5.81497 17.0638 5.18655 17.0639C4.74064 17.0647 4.29575 17.0218 3.85834 16.9358C4.75601 19.6746 7.36867 21.6665 10.4635 21.7234C7.94873 23.6448 4.86122 24.6833 1.68628 24.6756C1.12271 24.6748 0.559675 24.6415 0 24.576C3.22988 26.6207 6.98437 27.7022 10.8166 27.6919C23.8303 27.6919 30.9399 17.1848 30.9399 8.0721C30.9399 7.77332 30.932 7.47454 30.9177 7.18288C32.2976 6.20976 33.4914 5.00046 34.4431 3.61177Z" fill="white"/>
</svg>
