<svg width="32" height="32" viewBox="0 0 32 32" fill="none" xmlns="http://www.w3.org/2000/svg">
<path d="M16.2537 0.59375C7.59845 0.59375 0.516846 7.55415 0.516846 16.1268C0.516846 23.8778 6.27655 30.3111 13.7988 31.4737V20.6223H9.80162V16.1268H13.7988V12.7008C13.7988 8.80982 16.1436 6.67054 19.7473 6.67054C21.4627 6.67054 23.2567 6.96508 23.2567 6.96508V10.7941H21.2738C19.3224 10.7941 18.7087 11.9877 18.7087 13.2124V16.1268H23.0836L22.3754 20.6223H18.7087V31.4737C22.417 30.8968 25.7938 29.033 28.2294 26.2187C30.6651 23.4043 31.9991 19.825 31.9907 16.1268C31.9907 7.55415 24.909 0.59375 16.2537 0.59375Z" fill="white"/>
</svg>
