<svg width="39" height="28" viewBox="0 0 39 28" fill="none" xmlns="http://www.w3.org/2000/svg">
<path d="M20.1193 0.375H20.3307C22.2834 0.382292 32.1775 0.455208 34.8452 1.18923C35.6517 1.41325 36.3866 1.84991 36.9765 2.45557C37.5663 3.06123 37.9905 3.81467 38.2066 4.64061C38.4466 5.56422 38.6152 6.78678 38.7292 8.04824L38.753 8.30102L38.8053 8.93296L38.8243 9.18573C38.9787 11.4073 38.9977 13.4878 39 13.9423V14.1246C38.9977 14.5961 38.9763 16.8177 38.8053 19.1315L38.7863 19.3867L38.7649 19.6395C38.6461 21.0298 38.4703 22.4103 38.2066 23.4263C37.9912 24.2526 37.5672 25.0064 36.9773 25.6121C36.3873 26.2179 35.652 26.6543 34.8452 26.8777C32.0896 27.636 21.6159 27.6895 20.1644 27.6919H19.8271C19.0931 27.6919 16.0572 27.6773 12.8739 27.5655L12.4701 27.551L12.2634 27.5412L11.8572 27.5242L11.451 27.5072C8.81415 27.3881 6.30321 27.1961 5.14633 26.8753C4.33981 26.6521 3.60476 26.2161 3.01482 25.6107C2.42488 25.0054 2.00076 24.2521 1.78495 23.4263C1.52126 22.4128 1.34548 21.0298 1.2267 19.6395L1.20769 19.3843L1.18869 19.1315C1.07145 17.4846 1.00649 15.8342 0.993896 14.1829L0.993896 13.884C0.998648 13.3614 1.01765 11.5555 1.14593 9.56247L1.16256 9.31212L1.16969 9.18573L1.18869 8.93296L1.24095 8.30102L1.26471 8.04824C1.37873 6.78678 1.5474 5.56179 1.78732 4.64061C2.00277 3.81434 2.42673 3.06054 3.01669 2.45478C3.60666 1.84901 4.3419 1.41258 5.1487 1.18923C6.30559 0.873263 8.81653 0.678818 11.4534 0.557291L11.8572 0.540277L12.2658 0.525694L12.4701 0.518403L12.8763 0.501389C15.1371 0.426952 17.3989 0.385628 19.6608 0.377431H20.1193V0.375ZM16.1973 8.17706V19.8874L26.0724 14.0347L16.1973 8.17706Z" fill="white"/>
</svg>
