<?xml version="1.0" encoding="utf-8"?>
<!-- Generator: Adobe Illustrator 27.8.1, SVG Export Plug-In . SVG Version: 6.00 Build 0)  -->
<svg version="1.1" id="Layer_1" xmlns="http://www.w3.org/2000/svg" xmlns:xlink="http://www.w3.org/1999/xlink" x="0px" y="0px"
	 viewBox="0 0 90 39" style="enable-background:new 0 0 90 39;" xml:space="preserve">
<style type="text/css">
	.st0{fill:#fff;}
	.st1{fill:#fff;}
</style>
<g id="IE_x5F_logo_x5F_original_1">
	<g id="Group">
		<g id="Group_2">
			<path id="Vector" class="st0" d="M0.3,0.2h2.9v2.6H0.3V0.2z M0.4,4.8h2.7v9.6H0.4V4.8z"/>
			<path id="Vector_2" class="st0" d="M5,4.8h2.7V6h0.1C8.4,5,9.5,4.5,10.6,4.5c2.2,0,3.7,1.4,3.7,4.4v5.5h-2.7V9.1
				c0-1.4-0.7-2.2-1.8-2.2c-1.2,0-2.1,0.8-2.1,2.5v5.1H5V4.8z"/>
			<path id="Vector_3" class="st0" d="M25.1,8h-2.7c-0.2-0.7-0.9-1.2-1.9-1.2c-1.5,0-2.4,1.1-2.4,2.8c0,1.6,0.9,2.9,2.4,2.9
				c1,0,1.6-0.6,1.9-1.3h2.8c-0.5,2-2,3.6-4.7,3.6c-2.9,0-5.1-2-5.1-5.2c0-2.8,1.9-5.1,5.1-5.1C23.3,4.5,24.8,6.4,25.1,8z"/>
			<path id="Vector_4" class="st0" d="M26.5,0h2.7v14.5h-2.7V0z"/>
			<path id="Vector_5" class="st0" d="M40.1,14.5h-2.7v-1.2h-0.1c-0.8,1.1-1.8,1.5-2.8,1.5c-1.6,0-3.5-1-3.5-4.2V4.8h2.7v5.4
				c0,1.4,0.7,2.2,1.7,2.2c1.2,0,1.9-0.8,1.9-2.4V4.8h2.7V14.5z"/>
			<path id="Vector_6" class="st0" d="M46.3,7.4c-0.1-0.7-0.5-1.1-1.1-1.1c-0.6,0-1,0.4-1,0.8c0,0.5,0.3,0.9,1.9,1.4
				c2,0.7,2.8,1.7,2.8,3.1c0,1.8-1.3,3.1-3.7,3.1c-2.5,0-3.6-1.3-3.7-3.2H44c0.1,0.8,0.5,1.3,1.3,1.3c0.7,0,1.1-0.5,1.1-1
				c0-0.7-0.5-1.1-1.9-1.5c-1.8-0.6-2.8-1.5-2.8-3c0-1.7,1.4-2.9,3.5-2.9c2.1,0,3.3,1.2,3.5,2.9H46.3z"/>
			<path id="Vector_7" class="st0" d="M50.3,0.2h2.9v2.6h-2.9V0.2z M50.3,4.8H53v9.6h-2.7L50.3,4.8z"/>
			<path id="Vector_8" class="st0" d="M59.5,4.5c3,0,5.1,2.2,5.1,5.1c0,2.8-2.1,5.2-5.1,5.2c-3,0-5.1-2.2-5.1-5.2
				C54.3,6.7,56.5,4.5,59.5,4.5z M59.5,12.4c1.5,0,2.4-1.2,2.4-2.7c0-1.5-0.9-2.7-2.4-2.7c-1.5,0-2.4,1.2-2.4,2.7
				C57,11.2,58.1,12.4,59.5,12.4z"/>
			<path id="Vector_9" class="st0" d="M65.8,4.8h2.7V6h0.1c0.7-1.1,1.7-1.5,2.9-1.5c2.2,0,3.7,1.4,3.7,4.4v5.5h-2.7V9.1
				c0-1.4-0.7-2.2-1.8-2.2c-1.2,0-2,0.8-2,2.5v5.1h-2.7V4.8z"/>
		</g>
		<g id="Group_3">
			<path id="Vector_10" class="st1" d="M7.8,20.4c0,0.2,0,0.4,0,0.6H2.1c0,0.5,0.2,1,0.6,1.4c0.4,0.4,0.9,0.6,1.4,0.6
				c0.3,0,0.6-0.1,0.9-0.2c0.3-0.1,0.5-0.3,0.7-0.6h2.1c-0.5,1.3-1.6,2.4-3.6,2.4c-2.3,0-4.1-1.7-4.1-4.1c0-2.2,1.4-4,3.9-4
				C6.4,16.4,7.8,18.2,7.8,20.4z M2.1,19.5h3.6c-0.1-0.9-0.8-1.6-1.8-1.6C2.8,17.8,2.2,18.6,2.1,19.5z"/>
			<path id="Vector_11" class="st1" d="M16.3,24.2h-2.1v-1h0c-0.6,0.9-1.4,1.2-2.2,1.2c-1.2,0-2.8-0.8-2.8-3.4v-4.5h2.1v4.2
				c0,1.1,0.5,1.7,1.4,1.7c0.9,0,1.5-0.7,1.5-1.9v-4h2.1L16.3,24.2z"/>
			<path id="Vector_12" class="st1" d="M23.3,18.4c-0.3-0.1-0.7-0.1-1-0.1c-1.3,0-1.9,0.8-1.9,2.2v3.7h-2.1v-7.6h2.1v1.2h0
				c0.4-0.7,1.2-1.4,2.2-1.4c0.2,0,0.5,0,0.7,0.1V18.4z"/>
			<path id="Vector_13" class="st1" d="M27.8,16.4c2.4,0,4.1,1.8,4.1,4.1c0,2.2-1.7,4.1-4.1,4.1c-2.3,0-4.1-1.8-4.1-4.1
				C23.8,18.1,25.5,16.4,27.8,16.4z M27.8,22.6c1.2,0,1.9-0.9,1.9-2.2c0-1.2-0.7-2.2-1.9-2.2c-1.2,0-1.9,0.9-1.9,2.2
				C25.9,21.7,26.8,22.6,27.8,22.6L27.8,22.6z"/>
			<path id="Vector_14" class="st1" d="M33.3,16.6h2.1v0.9h0.1c0.5-0.6,1.2-1.1,2.4-1.1c1.6,0,3.5,1.3,3.5,4.1c0,2.4-1.7,4-3.6,4
				c-1.1,0-1.8-0.5-2.3-1.1h-0.1V28h-2.1V16.6z M37.3,18.3c-1,0-1.9,0.9-1.9,2.2c0,1.3,0.9,2.2,1.9,2.2c1.3,0,2-1.1,2-2.2
				C39.2,19.3,38.6,18.3,37.3,18.3L37.3,18.3z"/>
			<path id="Vector_15" class="st1" d="M50.1,20.4c0,0.2,0,0.4,0,0.6h-5.7c0,0.5,0.2,1,0.6,1.4c0.4,0.4,0.9,0.6,1.4,0.6
				c0.3,0,0.6-0.1,0.9-0.2c0.3-0.1,0.5-0.3,0.7-0.6H50c-0.5,1.3-1.6,2.4-3.6,2.4c-2.3,0-4.1-1.7-4.1-4.1c0-2.2,1.4-4,3.9-4
				C48.7,16.4,50.1,18.2,50.1,20.4z M44.4,19.5H48c-0.1-0.9-0.8-1.6-1.8-1.6C45.1,17.8,44.5,18.6,44.4,19.5z"/>
		</g>
		<g id="Group_4">
			<path id="Vector_16" class="st1" d="M67.9,29.7c-0.9-3-1.8-4-1.8-4s0.9-0.3,2.6-0.3c0.5,0,1.1,0,1.8,0.1
				c-1.9-0.8-4.5-1.5-5.7-1.6c-0.8-0.6-1.8-1.2-3-1.4c1.1,1.1,1.8,2.6,1.8,2.6s-1.8,1.9-2.9,4.3c2.1-1.9,3.8-2.9,3.8-2.9
				S65.8,27.2,67.9,29.7z"/>
			<path id="Vector_17" class="st1" d="M64.5,23.3c0.2,0.1,0.3,0.2,0.5,0.3c0.3,0,0.6,0.1,0.9,0.1c0-0.7-0.1-1.4-0.3-2.1
				C65.1,22.2,64.8,22.7,64.5,23.3z"/>
		</g>
		<g id="Group_5">
			<path id="Vector_18" class="st0" d="M70.3,16.5c0.3,0.3,0.6,0.7,0.9,1.1c0.3,0.4,0.5,0.8,0.7,1.2c0.2,0.4,0.4,0.9,0.5,1.3
				c0.2,0.5,0.2,0.9,0.3,1.4l0.1,0.6c0,0.2,0,0.4,0,0.6c0,0.3,0,0.6,0,0.9c0,0,0,0,0.1,0c0.2-0.1,0.3-0.3,0.5-0.4c0-0.1,0-0.3,0-0.4
				c0-0.2,0-0.4,0-0.6l0-0.6v0v0c-0.1-0.5-0.2-1-0.3-1.5c-0.1-0.5-0.3-1-0.5-1.4c-0.2-0.5-0.5-0.9-0.8-1.4c-0.2-0.3-0.4-0.5-0.6-0.8
				h-1.1L70.3,16.5z"/>
			<path id="Vector_19" class="st0" d="M52.8,27.6L52.8,27.6L52.8,27.6L52.8,27.6z"/>
			<path id="Vector_20" class="st0" d="M53.3,29L53.3,29c0.2,0.4,0.5,0.9,0.8,1.3c0.2,0.2,0.3,0.4,0.5,0.6c0.2,0.2,0.3,0.4,0.5,0.6
				c0.7,0.7,1.5,1.4,2.4,1.9c1.7,1.1,3.7,1.7,5.7,1.8c1,0.1,2,0,3-0.2c1-0.2,1.9-0.4,2.9-0.8c1.9-0.7,3.6-1.7,5.1-2.9
				c3.1-2.4,5.8-5.3,8.1-8.4c2.3-3.1,4.4-6.4,6.3-9.8c-2,3.3-4.2,6.5-6.6,9.5c-2.4,3-5.1,5.8-8.2,8c-1.6,1.1-3.2,2.1-5,2.7
				s-3.6,1-5.5,0.9c-1.9-0.1-3.7-0.7-5.2-1.7c-1.6-1-2.8-2.4-3.7-4c-0.2-0.4-0.4-0.8-0.5-1.2v0l0,0c-0.5-1.6-0.7-3.3-0.4-4.9
				c0.3-1.7,1-3.2,2-4.5c0.4-0.5,0.9-1,1.4-1.4h-1.6c-0.2,0.2-0.5,0.5-0.7,0.8c-1.2,1.5-1.9,3.2-2.3,5c-0.3,1.8-0.2,3.7,0.4,5.5
				C52.9,28.1,53.2,28.5,53.3,29L53.3,29z"/>
			<path id="Vector_21" class="st0" d="M82.9,26.6c-2.7,3.3-5.7,6.3-9.3,8.5c-1.8,1.1-3.7,1.9-5.7,2.4c-2,0.5-4.1,0.6-6.1,0.4
				c-4.1-0.6-7.9-2.9-10.1-6.3c-0.3-0.4-0.5-0.9-0.8-1.3c-0.2-0.5-0.4-0.9-0.6-1.4c-0.3-0.8-0.5-1.7-0.7-2.5
				c-0.3,0.2-0.7,0.3-1.1,0.5c0.1,0.8,0.4,1.6,0.7,2.4c0.2,0.5,0.4,1,0.7,1.5c0.3,0.5,0.5,0.9,0.8,1.4c2.4,3.7,6.6,6.1,10.9,6.7
				c2.2,0.3,4.4,0.1,6.5-0.4c1.1-0.3,2.1-0.6,3.1-1.1c1-0.5,1.9-1,2.9-1.6c3.7-2.3,6.7-5.5,9.3-8.9c1.3-1.7,2.5-3.5,3.6-5.3
				C88,19.8,89,17.9,90,16C87.9,19.7,85.6,23.3,82.9,26.6z"/>
			<path id="Vector_22" class="st0" d="M70.6,28.4c-0.7,0.4-1.5,0.8-2.3,1.1c-0.8,0.3-1.6,0.5-2.5,0.7c-1.7,0.3-3.4,0.1-4.9-0.7
				c-0.7-0.4-1.4-0.8-2-1.4c-0.5-0.6-1-1.3-1.3-2.1c-0.3-0.8-0.4-1.6-0.4-2.4c0-0.8,0.3-1.6,0.6-2.3l0,0l0,0c0,0,0-0.1,0.1-0.1
				l0.1-0.2l0.1-0.2c0-0.1,0.1-0.1,0.1-0.2l0,0c0.2-0.3,0.4-0.5,0.5-0.7l0,0l0,0c1-1.2,2.6-2,4.2-2.3c0.8-0.1,1.6-0.1,2.4,0
				c0.4,0.1,0.8,0.2,1.2,0.4c1.1,0.5,2,1.4,2.6,2.4c0.4,0.7,0.6,1.6,0.8,2.4c0.1,0.8,0.1,1.7,0,2.5l0.5,0.1c0.2-0.9,0.3-1.8,0.2-2.7
				c-0.1-0.9-0.3-1.8-0.7-2.6c-0.6-1.3-1.7-2.3-3-2.9c-0.4-0.2-0.9-0.3-1.3-0.5c-0.9-0.2-1.9-0.3-2.8-0.1c-1.9,0.3-3.6,1.2-4.9,2.6
				l0.1-0.1c-0.3,0.3-0.4,0.6-0.6,0.8l0,0l0,0c-0.1,0.1-0.1,0.2-0.1,0.2l-0.1,0.2l-0.1,0.2c-0.1,0.1-0.1,0.2-0.1,0.3l0-0.1
				c-0.4,0.9-0.7,1.8-0.7,2.8c-0.1,1,0.1,1.9,0.4,2.8c0.3,0.9,0.8,1.7,1.5,2.4c0.7,0.7,1.4,1.3,2.3,1.7c1.7,0.8,3.7,1,5.5,0.7
				c0.9-0.2,1.8-0.4,2.6-0.8c0.8-0.4,1.6-0.8,2.4-1.3c3.1-1.9,5.7-4.5,8-7.1c1.2-1.3,2.3-2.8,3.3-4.2c1-1.4,2-2.9,2.9-4.5
				c-1,1.4-2.1,2.9-3.2,4.3c-1.1,1.4-2.3,2.7-3.5,4c-1.2,1.3-2.5,2.5-3.8,3.7C73.5,26.5,72.1,27.5,70.6,28.4z"/>
			<path id="Vector_23" class="st0" d="M74.4,16.4C74.4,16.4,74.4,16.4,74.4,16.4c0.8,1.5,1.3,2.9,1.5,4.5c0.2-0.2,0.3-0.3,0.4-0.5
				c-0.1-0.4-0.1-0.8-0.2-1.2c-0.2-1-0.6-1.9-1-2.8L74.4,16.4z"/>
		</g>
	</g>
</g>
</svg>
