<?xml version="1.0" encoding="utf-8"?>
<!-- Generator: Adobe Illustrator 27.8.1, SVG Export Plug-In . SVG Version: 6.00 Build 0)  -->
<svg version="1.1" id="Layer_1" xmlns="http://www.w3.org/2000/svg" xmlns:xlink="http://www.w3.org/1999/xlink" x="0px" y="0px"
	 viewBox="0 0 123.2 100" style="enable-background:new 0 0 123.2 100;" xml:space="preserve">
<style type="text/css">
	.st0{opacity:0.5;}
	.st1{fill:#00AAB5;}
</style>
<g class="st0">
	<path class="st1" d="M114,8V92h-5.2L72.3,55.4l-2.1-2.1L68,55.4L48.4,75.1L42,68.7l-2.1-2.1l-2.1,2.1L14.4,92H9.2V8H114 M117,5H6.2
		V95h9.5l24.1-24.2l8.5,8.5l21.8-21.8L107.5,95h9.5V5L117,5z"/>
</g>
<g class="st0">
	<path class="st1" d="M27,16.1c4.5,0,8.2,3.7,8.2,8.2s-3.7,8.2-8.2,8.2s-8.2-3.7-8.2-8.2S22.5,16.1,27,16.1 M27,13.1
		c-6.2,0-11.2,5-11.2,11.2s5,11.2,11.2,11.2s11.2-5,11.2-11.2S33.2,13.1,27,13.1L27,13.1z"/>
</g>
</svg>
